HIERARCHY
ROOT Hips
{
	OFFSET 0.000000 8.830580 0.000000
	CHANNELS 6 Xposition Yposition Zposition Zrotation Yrotation Xrotation 
	JOINT Spine
	{
		OFFSET 0.000000 0.010000 0.000000
		CHANNELS 3 Zrotation Yrotation Xrotation
		JOINT Spine1
		{
			OFFSET 0.000000 2.459130 0.000000
			CHANNELS 3 Zrotation Yrotation Xrotation
			JOINT Neck
			{
				OFFSET 0.000000 2.484630 0.000000
				CHANNELS 3 Zrotation Yrotation Xrotation
				JOINT Head_virtual
				{
					OFFSET 0.000000 0.000000 0.000000
					CHANNELS 3 Zrotation Yrotation Xrotation
					JOINT Head
					{
						OFFSET 0.000000 0.927525 0.000000
						CHANNELS 3 Zrotation Yrotation Xrotation
						End Site
						{
							OFFSET 0.000000 0.000000 0.000000
						}
					}
				}
				JOINT LeftUpArm_virtual
				{
					OFFSET 0.000000 0.000000 0.000000
					CHANNELS 3 Zrotation Yrotation Xrotation
					JOINT LeftUpArm
					{
						OFFSET 1.248820 0.000000 0.000000
						CHANNELS 3 Zrotation Yrotation Xrotation
						JOINT LeftForeArm
						{
							OFFSET 2.597580 0.000000 0.000000
							CHANNELS 3 Zrotation Yrotation Xrotation
							JOINT LeftHand
							{
								OFFSET 2.455420 0.000000 0.000000
								CHANNELS 3 Zrotation Yrotation Xrotation
								End Site
								{
									OFFSET 0.000000 0.000000 0.000000
								}
							}
						}
					}
				}
				JOINT RightUpArm_virtual
				{
					OFFSET -0.000000 -0.000000 -0.000000
					CHANNELS 3 Zrotation Yrotation Xrotation
					JOINT RightUpArm
					{
						OFFSET -1.248820 -0.000000 -0.000000
						CHANNELS 3 Zrotation Yrotation Xrotation
						JOINT RightForeArm
						{
							OFFSET -2.597580 -0.000000 -0.000000
							CHANNELS 3 Zrotation Yrotation Xrotation
							JOINT RightHand
							{
								OFFSET -2.455420 -0.000000 -0.000000
								CHANNELS 3 Zrotation Yrotation Xrotation
								End Site
								{
									OFFSET 0.000000 0.000000 0.000000
								}
							}
						}
					}
				}
			}
		}
	}
	JOINT LeftUpLeg
	{
		OFFSET 1.271939 0.000000 0.000000
		CHANNELS 3 Zrotation Yrotation Xrotation
		JOINT LeftLowLeg
		{
			OFFSET 0.000000 -4.342910 0.000000
			CHANNELS 3 Zrotation Yrotation Xrotation
			JOINT LeftFoot
			{
				OFFSET 0.000000 -4.487670 0.000000
				CHANNELS 3 Zrotation Yrotation Xrotation
				JOINT LeftToeBase
				{
					OFFSET 0.000000 0.000000 1.515070
					CHANNELS 3 Zrotation Yrotation Xrotation
					End Site
					{
						OFFSET 0.000000 0.000000 0.000000
					}
				}
			}
		}
	}
	JOINT RightUpLeg
	{
		OFFSET -1.271939 0.000000 0.000000
		CHANNELS 3 Zrotation Yrotation Xrotation
		JOINT RightLowLeg
		{
			OFFSET 0.000000 -4.342910 0.000000
			CHANNELS 3 Zrotation Yrotation Xrotation
			JOINT RightFoot
			{
				OFFSET 0.000000 -4.487670 0.000000
				CHANNELS 3 Zrotation Yrotation Xrotation
				JOINT RightToeBase
				{
					OFFSET 0.000000 0.000000 1.515070
					CHANNELS 3 Zrotation Yrotation Xrotation
					End Site
					{
						OFFSET 0.000000 0.000000 0.000000
					}
				}
			}
		}
	}
}
MOTION
Frames: 16
Frame Time: 0.041667
-15.797195 8.887732 44.815450 178.811920 -0.151731 179.603453 2.386715 1.497300 -17.360717 -6.672333 3.437589 19.623052 0.000000 0.000000 0.000000 14.107171 4.519593 8.182691 -8.751383 -6.309923 -83.275299 -25.702101 2.023120 5.609009 -45.487701 -6.147900 20.222401 0.000000 -19.468599 0.000000 4.948580 18.216000 -12.709500 31.542801 -4.923100 0.372986 46.943600 2.744140 20.035004 0.000000 22.627501 0.000000 3.552570 -9.501530 -14.995100 -2.339416 -10.319171 -1.028935 0.000000 0.000000 16.656700 -18.743397 12.799169 -8.674130 0.000000 0.000000 -19.560050 3.213334 14.574740 -0.800116 0.000000 0.000000 20.291100 31.295394 -7.502478 -15.586276 0.000000 0.000000 -16.609890 
-15.797331 8.888689 44.810257 178.831375 -0.324119 179.650801 2.339833 1.322520 -17.569833 -6.559802 3.396691 19.719775 0.000000 0.000000 0.000000 13.967787 4.560909 8.128738 -8.724242 -6.376687 -83.282002 -25.707701 1.999580 5.601013 -45.602299 -6.157250 20.340599 0.000000 -19.727699 0.000000 5.357560 18.206699 -12.304400 31.424200 -4.888040 0.436005 46.979099 2.728860 20.118988 0.000000 22.653999 0.000000 3.485560 -9.549280 -14.723200 -2.315052 -10.484528 -1.065430 0.000000 0.000000 16.659500 -18.732203 12.798103 -8.655419 0.000000 0.000000 -19.591490 3.227783 14.344002 -0.724248 0.000000 0.000000 20.130501 31.207289 -7.539969 -15.534866 0.000000 0.000000 -16.614590 
-15.797178 8.889134 44.809306 178.833688 -0.289982 179.544082 2.327372 1.318213 -17.497280 -6.521809 3.408795 19.701495 0.000000 0.000000 0.000000 13.865742 4.598654 8.080571 -8.714114 -6.418781 -83.296624 -25.683300 2.010360 5.622986 -45.718201 -6.252670 20.353100 0.000000 -19.937799 0.000000 5.728540 18.038099 -12.082300 31.423599 -4.892220 0.459015 46.930000 2.742350 20.225006 0.000000 22.652800 0.000000 3.732340 -10.053200 -13.701600 -2.331857 -10.431907 -0.946656 0.000000 0.000000 16.657499 -18.698115 12.807703 -8.640358 0.000000 0.000000 -19.583910 3.245232 14.254431 -0.607617 0.000000 0.000000 20.108700 31.173496 -7.472376 -15.473453 0.000000 0.000000 -16.627540 
-15.796693 8.889119 44.809188 178.839915 -0.255470 179.500264 2.297610 1.291099 -17.478181 -6.454845 3.421814 19.648768 0.000000 0.000000 0.000000 13.807378 4.607511 8.085309 -8.667780 -6.480025 -83.370927 -25.671801 2.012240 5.627991 -45.814098 -6.293700 20.451099 0.000000 -20.180000 0.000000 6.332050 17.915400 -11.112800 31.368299 -4.834690 0.494995 46.925999 2.714860 20.298004 0.000000 22.630301 0.000000 3.830000 -10.309100 -13.538000 -2.338976 -10.448454 -0.894794 0.000000 0.000000 16.657801 -18.722133 12.850752 -8.673561 0.000000 0.000000 -19.552890 3.260679 14.266694 -0.581881 0.000000 0.000000 20.141199 31.128829 -7.475866 -15.455414 0.000000 0.000000 -16.635110 
-15.796378 8.889338 44.809129 178.834840 -0.201048 179.453026 2.264761 1.284831 -17.440526 -6.390093 3.451431 19.588778 0.000000 0.000000 0.000000 13.735790 4.640663 8.100158 -8.680820 -6.515918 -83.390981 -25.724199 2.012800 5.619995 -45.798302 -6.335750 20.699600 0.000000 -20.401300 0.000000 6.724630 17.793501 -10.267000 31.333599 -4.831010 0.506012 46.916500 2.706480 20.355011 0.000000 22.573900 0.000000 3.864840 -10.268700 -13.492900 -2.342170 -10.324501 -0.845035 0.000000 0.000000 16.659599 -18.731193 12.777980 -8.647337 0.000000 0.000000 -19.575080 3.263242 14.298755 -0.555773 0.000000 0.000000 20.174000 31.094631 -7.469705 -15.436015 0.000000 0.000000 -16.639550 
-15.796368 8.889333 44.808799 178.845295 -0.182940 179.418242 2.254757 1.275001 -17.425853 -6.352116 3.451475 19.522243 0.000000 0.000000 0.000000 13.707656 4.618932 8.101470 -8.663669 -6.571872 -83.448176 -25.746799 2.006950 5.627991 -45.764900 -6.361420 20.986401 0.000000 -20.578800 0.000000 7.228160 17.614599 -9.990000 31.297600 -4.795530 0.511993 46.920601 2.646690 20.415985 0.000000 22.518499 0.000000 3.868160 -10.171700 -13.472300 -2.338261 -10.302687 -0.812307 0.000000 0.000000 16.673401 -18.724490 12.777153 -8.651412 0.000000 0.000000 -19.584720 3.274509 14.254547 -0.515524 0.000000 0.000000 20.158899 31.110618 -7.411596 -15.411316 0.000000 0.000000 -16.630720 
-15.796392 8.889260 44.808998 178.846810 -0.126203 179.402524 2.255211 1.305987 -17.413169 -6.345768 3.468499 19.466492 0.000000 0.000000 0.000000 13.700442 4.606473 8.095943 -8.675542 -6.591048 -83.469459 -25.760900 1.992550 5.632996 -45.716099 -6.374990 21.226500 0.000000 -20.689899 0.000000 7.529820 17.590700 -9.558010 31.309000 -4.803040 0.528992 46.887699 2.655780 20.493011 0.000000 22.527201 0.000000 3.880660 -10.262400 -13.412800 -2.341827 -10.259837 -0.793737 0.000000 0.000000 16.680700 -18.721948 12.791876 -8.667208 0.000000 0.000000 -19.590100 3.271538 14.266848 -0.514445 0.000000 0.000000 20.174000 31.109602 -7.371367 -15.392221 0.000000 0.000000 -16.621870 
-15.796202 8.889353 44.807453 178.861134 -0.117143 179.388523 2.253920 1.303848 -17.424055 -6.326334 3.462443 19.395919 0.000000 0.000000 0.000000 13.674487 4.599965 8.100071 -8.677165 -6.627049 -83.507727 -25.777201 1.984210 5.632996 -45.633202 -6.376680 21.555099 0.000000 -20.754801 0.000000 7.748990 17.413601 -9.485330 31.290199 -4.815040 0.548004 46.889702 2.627300 20.570007 0.000000 22.528200 0.000000 3.711500 -9.983390 -14.043000 -2.325539 -10.217508 -0.764960 0.000000 0.000000 16.673000 -18.713009 12.754132 -8.665287 0.000000 0.000000 -19.568820 3.292146 14.281910 -0.484739 0.000000 0.000000 20.162901 31.162139 -7.345262 -15.375150 0.000000 0.000000 -16.666700 
-15.796340 8.889500 44.807231 178.850094 -0.083055 179.360768 2.243144 1.316818 -17.410446 -6.326038 3.472962 19.351251 0.000000 0.000000 0.000000 13.653588 4.622849 8.089795 -8.701069 -6.625120 -83.536898 -25.788300 1.956520 5.631989 -45.533600 -6.370560 21.858900 0.000000 -20.798201 0.000000 7.899030 17.419600 -8.760450 31.281601 -4.843660 0.561005 46.898399 2.653940 20.656006 0.000000 22.490400 0.000000 3.678870 -9.911520 -14.168000 -2.341719 -10.170673 -0.738324 0.000000 0.000000 16.685499 -18.706762 12.749729 -8.654671 0.000000 0.000000 -19.591850 3.286223 14.306554 -0.462039 0.000000 0.000000 20.170700 31.158524 -7.343894 -15.373387 0.000000 0.000000 -16.665610 
-15.796391 8.889677 44.807472 178.848449 -0.062167 179.297309 2.245985 1.321704 -17.356264 -6.343830 3.455657 19.291862 0.000000 0.000000 0.000000 13.585228 4.692998 8.115205 -8.659904 -6.647233 -83.616162 -25.747900 1.913350 5.627991 -45.496799 -6.318320 22.011101 0.000000 -20.799700 0.000000 7.909390 17.273001 -9.105750 31.276800 -4.844270 0.582001 46.910301 2.655550 20.717987 0.000000 22.485001 0.000000 3.589020 -9.805530 -14.442600 -2.351465 -10.126208 -0.676609 0.000000 0.000000 16.693800 -18.714760 12.726452 -8.652231 0.000000 0.000000 -19.560940 3.294993 14.316322 -0.425337 0.000000 0.000000 20.220699 31.128542 -7.344993 -15.360412 0.000000 0.000000 -16.685230 
-15.796896 8.889842 44.806730 178.852338 -0.085888 179.286029 2.250423 1.291789 -17.359052 -6.347856 3.414984 19.228382 0.000000 0.000000 0.000000 13.510111 4.741889 8.117908 -8.661038 -6.668975 -83.626393 -25.712000 1.892220 5.613007 -45.459499 -6.234040 22.139099 0.000000 -20.794399 0.000000 7.882410 17.176100 -9.068020 31.241899 -4.847710 0.587006 46.955002 2.622650 20.696991 0.000000 22.464701 0.000000 3.692040 -9.942760 -13.976400 -2.348051 -10.109326 -0.668523 0.000000 0.000000 16.700600 -18.701291 12.693431 -8.638995 0.000000 0.000000 -19.563740 3.292210 14.248665 -0.400675 0.000000 0.000000 20.203899 31.124273 -7.306263 -15.336043 0.000000 0.000000 -16.687660 
-15.797369 8.890183 44.807242 178.845752 -0.098882 179.223101 2.241274 1.259309 -17.275204 -6.352839 3.366017 19.097920 0.000000 0.000000 0.000000 13.479263 4.722586 8.158417 -8.672106 -6.741268 -83.727218 -25.636999 1.839080 5.601013 -45.430302 -6.038340 22.162399 0.000000 -20.831200 0.000000 7.793210 17.020201 -8.545170 31.210100 -4.879690 0.531006 46.980202 2.555640 20.845001 0.000000 22.498699 0.000000 3.689210 -10.023300 -14.048100 -2.359800 -10.061818 -0.622321 0.000000 0.000000 16.719999 -18.661963 12.655455 -8.598319 0.000000 0.000000 -19.591010 3.297024 14.224835 -0.356919 0.000000 0.000000 20.240400 31.115412 -7.302358 -15.329450 0.000000 0.000000 -16.696960 
-15.797210 8.890485 44.808441 178.844403 -0.116262 179.169529 2.228225 1.214995 -17.182984 -6.346531 3.313788 18.969628 0.000000 0.000000 0.000000 13.388518 4.770271 8.219720 -8.661487 -6.807513 -83.807131 -25.548100 1.826280 5.704987 -45.435299 -5.926380 22.199499 0.000000 -20.966900 0.000000 7.908380 17.052000 -8.091450 31.156200 -4.899030 0.566010 47.009499 2.514370 20.881012 0.000000 22.636801 0.000000 3.391190 -9.747560 -14.974600 -2.359234 -10.012188 -0.585434 0.000000 0.000000 16.731899 -18.652012 12.598554 -8.567071 0.000000 0.000000 -19.612350 3.310317 14.212889 -0.319325 0.000000 0.000000 20.263800 31.099718 -7.332490 -15.325970 0.000000 0.000000 -16.701840 
-15.796989 8.890892 44.809091 178.840160 -0.094352 179.154394 2.204726 1.171404 -17.117087 -6.303110 3.281848 18.830841 0.000000 0.000000 0.000000 13.318713 4.778312 8.253589 -8.717266 -6.873617 -83.873858 -25.474199 1.906350 5.789001 -45.419399 -5.855950 22.327999 0.000000 -21.117100 0.000000 7.976450 17.056801 -7.884250 31.080700 -4.916050 0.561005 47.032200 2.412200 20.993011 0.000000 22.756599 0.000000 3.561080 -10.076800 -13.384000 -2.357537 -9.951126 -0.564670 0.000000 0.000000 16.715500 -18.662835 12.552625 -8.542156 0.000000 0.000000 -19.596640 3.306452 14.207585 -0.321499 0.000000 0.000000 20.283100 31.069578 -7.333534 -15.303912 0.000000 0.000000 -16.706340 
-15.797129 8.891250 44.809853 178.838331 -0.073447 179.144399 2.190967 1.149810 -17.072843 -6.264358 3.267931 18.734396 0.000000 0.000000 0.000000 13.259157 4.791006 8.289639 -8.710776 -6.942287 -83.972063 -25.431499 1.948770 5.803986 -45.381302 -5.739520 22.506500 0.000000 -21.261999 0.000000 7.987290 16.945801 -7.978470 31.044399 -4.951800 0.567993 46.990898 2.349450 21.177002 0.000000 22.917999 0.000000 3.585390 -10.319100 -13.164000 -2.357397 -9.906122 -0.556284 0.000000 0.000000 16.709900 -18.686032 12.516020 -8.535195 0.000000 0.000000 -19.576260 3.301828 14.218965 -0.336284 0.000000 0.000000 20.316700 31.078024 -7.320652 -15.294683 0.000000 0.000000 -16.697450 
-15.797398 8.891423 44.811498 178.841157 -0.042313 179.126945 2.181853 1.127386 -16.999391 -6.215353 3.244329 18.594992 0.000000 0.000000 0.000000 13.117477 4.847179 8.320722 -8.730431 -7.039045 -84.083160 -25.405100 2.043960 5.811005 -45.260502 -5.536500 22.839300 0.000000 -21.614100 0.000000 8.078690 16.993799 -7.970870 31.003300 -5.050540 0.554993 46.926300 2.261830 21.346008 0.000000 23.175400 0.000000 3.256740 -9.917990 -14.623800 -2.353070 -9.852292 -0.557992 0.000000 0.000000 16.734100 -18.671793 12.492389 -8.524878 0.000000 0.000000 -19.579370 3.304219 14.273030 -0.359692 0.000000 0.000000 20.375200 31.078042 -7.330191 -15.288360 0.000000 0.000000 -16.737610 
